<?xml version="1.0" encoding="UTF-8"?>
<svg width="1440" height="320" viewBox="0 0 1440 320" fill="none" xmlns="http://www.w3.org/2000/svg">
  <path d="M0,320H1440V160C1360,180 1280,240 1200,260C1120,280 1040,220 960,200C880,180 800,240 720,260C640,280 560,220 480,200C400,180 320,240 240,260C160,280 80,220 0,200V320Z" fill="currentColor"/>
  <path d="M0,320H1440V200C1360,220 1280,280 1200,300C1120,320 1040,260 960,240C880,220 800,280 720,300C640,320 560,260 480,240C400,220 320,280 240,300C160,320 80,260 0,240V320Z" fill="currentColor" opacity="0.5"/>
  <path d="M0,320H1440V240C1360,260 1280,320 1200,320C1120,320 1040,300 960,280C880,260 800,320 720,320C640,320 560,300 480,280C400,260 320,320 240,320C160,320 80,300 0,280V320Z" fill="currentColor" opacity="0.25"/>
</svg>